<svg width="32" height="32" viewBox="0 0 32 32" fill="none" xmlns="http://www.w3.org/2000/svg">
<g clip-path="url(#clip0)">
<path d="M29.4614 4.53613C27.8049 2.7395 25.532 1.75 23.0608 1.75C21.2136 1.75 19.522 2.33398 18.0327 3.4856C17.2812 4.06689 16.6003 4.77808 16 5.60815C15.3999 4.77832 14.7188 4.06689 13.967 3.4856C12.478 2.33398 10.7864 1.75 8.93921 1.75C6.46802 1.75 4.19482 2.7395 2.53833 4.53613C0.901611 6.31177 0 8.73755 0 11.3669C0 14.0732 1.00854 16.5505 3.17383 19.1633C5.11084 21.5005 7.89478 23.873 11.1187 26.6204C12.2195 27.5586 13.4673 28.6221 14.7629 29.7549C15.1052 30.0547 15.5444 30.2197 16 30.2197C16.4553 30.2197 16.8948 30.0547 17.2366 29.7554C18.5322 28.6223 19.7808 27.5583 20.8821 26.6196C24.1055 23.8728 26.8894 21.5005 28.8264 19.1631C30.9917 16.5505 32 14.0732 32 11.3667C32 8.73755 31.0984 6.31177 29.4614 4.53613Z" fill="#FF3743"/>
</g>
<defs>
<clipPath id="clip0">
<rect width="32" height="32" fill="white"/>
</clipPath>
</defs>
</svg>
