<svg width="15" height="14" viewBox="0 0 15 14" fill="none" xmlns="http://www.w3.org/2000/svg">
<path d="M12 4.51125H9V2.01125C9.05038 1.53121 8.908 1.05082 8.6042 0.675752C8.30039 0.300683 7.86004 0.0616556 7.38 0.0112505C7.25378 -0.00375016 7.12622 -0.00375016 7 0.0112505H6.215C6.04787 0.0158295 5.88698 0.0757558 5.75758 0.18163C5.62818 0.287503 5.53758 0.433335 5.5 0.596251V0.65625L5 3.82625L3.23 6.51125H0V13.5113H9.5C13.22 13.5113 14 11.3363 14 9.51125V6.51125C14.0504 6.03121 13.908 5.55082 13.6042 5.17575C13.3004 4.80068 12.86 4.56166 12.38 4.51125C12.2538 4.49625 12.1262 4.49625 12 4.51125ZM3 12.5113H1V7.51125H3V12.5113Z" fill="#2D4379"/>
</svg>
